<svg width="50" height="50" viewBox="0 0 50 50" fill="none" xmlns="http://www.w3.org/2000/svg">
<g clip-path="url(#clip0_65_20)">
<path fill-rule="evenodd" clip-rule="evenodd" d="M18.5626 44.0012C18.1555 44.0012 17.825 43.6707 17.825 43.2636C17.825 42.8564 18.1555 42.5259 18.5626 42.5259H31.3541C31.7612 42.5259 32.0918 42.8564 32.0918 43.2636C32.0918 43.6707 31.7612 44.0012 31.3541 44.0012H18.5626Z" fill="white"/>
<path fill-rule="evenodd" clip-rule="evenodd" d="M24.9918 38.9633L26.9641 38.9651C26.9641 38.9651 27.794 39.9265 28.3159 40.2162C28.8379 40.5059 29.7587 40.594 30.096 40.7032C30.1897 40.7335 30.2807 40.8011 30.3395 40.8711C30.3982 40.9411 30.4486 41.0314 30.4486 41.1229V41.8787H19.535V41.1229C19.535 41.0314 19.5854 40.9411 19.6442 40.8711C19.7029 40.8011 19.7939 40.7335 19.8877 40.7032C20.2249 40.594 21.1458 40.5059 21.6677 40.2162C22.1897 39.9265 23.0195 38.9651 23.0195 38.9651L24.9918 38.9633Z" fill="white"/>
<path fill-rule="evenodd" clip-rule="evenodd" d="M27.1705 37.7019L26.8567 38.2393H23.1269L22.8131 37.7019H27.1705Z" fill="white"/>
<path fill-rule="evenodd" clip-rule="evenodd" d="M26.5248 35.7622H26.5492L27.5366 36.7698C27.5366 36.7698 27.5915 36.8997 27.5904 36.9579C27.5893 37.0153 27.5743 37.1127 27.5431 37.1609C27.5006 37.2269 27.4369 37.3542 27.3351 37.3542H22.5814C22.4796 37.3542 22.416 37.2269 22.3734 37.1609C22.3424 37.1127 22.3273 37.0153 22.3262 36.9579C22.3251 36.8997 22.3799 36.7698 22.3799 36.7698L23.3673 35.7622H23.3918C23.5853 35.8114 23.7651 35.8506 23.9077 35.8773C24.1983 35.9316 24.5302 35.9529 24.6508 35.9541C24.9568 35.9573 24.9583 35.9541 24.9583 35.9541C24.9583 35.9541 24.9598 35.9573 25.2657 35.9541C25.3864 35.9529 25.7183 35.9316 26.0089 35.8773C26.1515 35.8506 26.3313 35.8114 26.5248 35.7622Z" fill="white"/>
<path fill-rule="evenodd" clip-rule="evenodd" d="M24.9583 20.1663C24.9583 20.1663 26.3932 20.163 27.1107 20.1663C28.0332 20.1705 29.4937 20.1748 30.4931 20.1919C31.3645 20.2068 32.338 20.2388 33.1067 20.2688C33.7733 20.2947 35.1054 20.3712 35.1054 20.3712C35.1054 20.3712 34.9943 22.2564 34.8748 23.1386C34.7596 23.9883 34.5801 24.9086 34.3879 25.6645C34.214 26.3484 33.9651 27.0402 33.7217 27.674C33.4873 28.2845 33.2315 28.8889 32.9273 29.4677C32.6199 30.0528 32.2659 30.638 31.8768 31.1845C31.4753 31.7482 31.0141 32.3589 30.5187 32.8501C30.0309 33.3338 29.4169 33.7854 28.9044 34.1313C28.445 34.4413 27.9264 34.7249 27.4439 34.9256C26.9845 35.1166 26.3746 35.2672 26.0089 35.3356C25.7183 35.3899 25.3865 35.4112 25.2658 35.4125C24.9598 35.4156 24.9583 35.4125 24.9583 35.4125C24.9583 35.4125 24.9569 35.4156 24.6508 35.4125C24.5302 35.4112 24.1983 35.3899 23.9078 35.3356C23.5421 35.2672 22.9321 35.1166 22.4728 34.9256C21.9902 34.7249 21.4716 34.4413 21.0122 34.1313C20.4997 33.7854 19.8858 33.3338 19.3979 32.8501C18.9026 32.3589 18.4413 31.7482 18.0398 31.1845C17.6507 30.638 17.2968 30.0528 16.9893 29.4677C16.6851 28.8889 16.4294 28.2845 16.195 27.674C15.9515 27.0402 15.7026 26.3484 15.5287 25.6645C15.3365 24.9086 15.1571 23.9883 15.0418 23.1386C14.9223 22.2564 14.8113 20.3712 14.8113 20.3712C14.8113 20.3712 16.1433 20.2947 16.8099 20.2688C17.5786 20.2388 18.5521 20.2068 19.4235 20.1919C20.4229 20.1748 21.8835 20.1705 22.8059 20.1663C23.5234 20.163 24.9583 20.1663 24.9583 20.1663ZM24.3363 29.2378L25.0479 30.0595L25.7596 29.2378C25.7596 29.2378 26.0146 28.9398 26.1261 28.7725C26.2535 28.5815 26.4392 28.267 26.5634 28.0387C26.6739 27.8357 26.7813 27.6308 26.8806 27.4221C26.9882 27.1958 27.1039 26.9531 27.1924 26.7093C27.2796 26.4691 27.3649 26.2079 27.4338 25.9662C27.5009 25.7304 27.5548 25.5118 27.6082 25.2476C27.6528 25.026 27.6838 24.5735 27.6838 24.5735L27.747 23.5479L26.7198 23.5744C26.7198 23.5744 26.5056 23.5813 26.4151 23.5759C26.3423 23.5714 26.275 23.5665 26.2054 23.5561C26.1497 23.5477 26.1159 23.5403 26.0674 23.5267C25.9903 23.5052 25.9025 23.4735 25.8185 23.4439C25.7625 23.4243 25.7076 23.4069 25.6718 23.3887C25.6098 23.3569 25.4654 23.2855 25.4654 23.2855L25.0479 23.079L24.6305 23.2855C24.6305 23.2855 24.4862 23.3569 24.4241 23.3887C24.3883 23.4069 24.3333 23.4243 24.2775 23.4439C24.1934 23.4735 24.1055 23.5052 24.0286 23.5267C23.98 23.5403 23.9463 23.5477 23.8905 23.5561C23.8209 23.5665 23.7537 23.5714 23.6808 23.5759C23.5903 23.5813 23.3761 23.5744 23.3761 23.5744L22.349 23.5479L22.4122 24.5735C22.4122 24.5735 22.443 25.026 22.4878 25.2476C22.5411 25.5118 22.595 25.7304 22.6621 25.9662C22.731 26.2079 22.8163 26.4691 22.9035 26.7093C22.992 26.9531 23.1077 27.1958 23.2153 27.4221C23.3146 27.6308 23.422 27.8357 23.5325 28.0387C23.6567 28.267 23.8425 28.5815 23.9698 28.7725C24.0813 28.9398 24.3363 29.2378 24.3363 29.2378ZM25.0479 28.6215C25.0479 28.6215 24.8424 28.3841 24.7531 28.2502C24.6384 28.0781 24.4714 27.7944 24.3595 27.5887C24.2571 27.4007 24.1575 27.211 24.0656 27.0177C23.9704 26.8177 23.8667 26.6035 23.7885 26.388C23.7087 26.1683 23.6306 25.9294 23.5676 25.7083C23.5071 25.4961 23.4587 25.2992 23.4107 25.0614C23.3745 24.882 23.3519 24.5156 23.3519 24.5156C23.3519 24.5156 23.6234 24.5226 23.7381 24.5156C23.8396 24.5094 23.9332 24.5017 24.0302 24.4872C24.1321 24.4719 24.1937 24.4582 24.2824 24.4334C24.3773 24.4068 24.486 24.3686 24.5896 24.3322C24.6907 24.2967 24.7881 24.26 24.8528 24.2269C24.9116 24.1968 25.0479 24.1293 25.0479 24.1293C25.0479 24.1293 25.1844 24.1968 25.243 24.2269C25.3078 24.26 25.4052 24.2967 25.5064 24.3322C25.61 24.3686 25.7185 24.4068 25.8135 24.4334C25.9022 24.4582 25.9638 24.4719 26.0656 24.4872C26.1627 24.5017 26.2562 24.5094 26.3578 24.5156C26.4726 24.5226 26.7441 24.5156 26.7441 24.5156C26.7441 24.5156 26.7214 24.882 26.6853 25.0614C26.6373 25.2992 26.5887 25.4961 26.5283 25.7083C26.4654 25.9294 26.3872 26.1683 26.3074 26.388C26.2292 26.6035 26.1255 26.8177 26.0304 27.0177C25.9384 27.211 25.8388 27.4007 25.7365 27.5887C25.6245 27.7944 25.4575 28.0781 25.3427 28.2502C25.2535 28.3841 25.0479 28.6215 25.0479 28.6215ZM21.151 33.7163C21.5943 34.0264 22.0946 34.31 22.5602 34.5107C23.0034 34.7017 23.5919 34.8523 23.9447 34.9206C24.225 34.975 24.5452 34.9963 24.6616 34.9975C24.9569 35.0007 24.9583 34.9975 24.9583 34.9975C24.9583 34.9975 24.9598 35.0007 25.255 34.9975C25.3714 34.9963 25.6916 34.975 25.9719 34.9206C26.3247 34.8523 26.9132 34.7017 27.3564 34.5107C27.822 34.31 28.3224 34.0264 28.7656 33.7163C29.0128 33.5434 26.9856 34.5517 24.9583 34.5517C22.9311 34.5517 20.9038 33.5434 21.151 33.7163Z" fill="white"/>
<path fill-rule="evenodd" clip-rule="evenodd" d="M14.8536 19.6553C14.4471 19.6787 14.0982 19.3676 14.0748 18.9612C14.0515 18.5548 14.3625 18.2058 14.7689 18.1824C14.7689 18.1824 16.1101 18.1054 16.7813 18.0792C17.5547 18.0492 18.5341 18.0169 19.4109 18.0019C20.413 17.9848 21.8775 17.9805 22.8025 17.9762C23.5073 17.973 24.9028 17.9761 24.9583 17.9762C25.0138 17.9761 26.4094 17.973 27.1141 17.9762C28.0391 17.9805 29.5036 17.9848 30.5057 18.0019C31.3825 18.0169 32.362 18.0492 33.1354 18.0792C33.8065 18.1054 35.1477 18.1824 35.1477 18.1824C35.5542 18.2058 35.8652 18.5548 35.8419 18.9612C35.8185 19.3676 35.4695 19.6787 35.0631 19.6553C35.0631 19.6553 33.7401 19.5792 33.078 19.5535C32.3141 19.5238 31.3466 19.4918 30.4804 19.477C29.4838 19.46 28.0273 19.4558 27.1073 19.4515C26.3916 19.4482 24.96 19.4515 24.96 19.4515H24.9566C24.9566 19.4515 23.5251 19.4482 22.8094 19.4515C21.8894 19.4558 20.4328 19.46 19.4362 19.477C18.5701 19.4918 17.6026 19.5238 16.8386 19.5535C16.1766 19.5792 14.8536 19.6553 14.8536 19.6553Z" fill="white"/>
<path fill-rule="evenodd" clip-rule="evenodd" d="M15.3442 17.4671C15.3422 17.4171 15.3396 17.3575 15.3371 17.3177C15.3283 17.1796 15.3165 16.9252 15.2951 16.73C15.2706 16.5061 15.2339 16.2139 15.1901 15.9743C15.1482 15.7447 15.0972 15.5164 15.0327 15.2921C14.9662 15.0612 14.8718 14.7935 14.7913 14.5889C14.7208 14.4097 14.5499 14.0641 14.5499 14.0641L15.8093 10.9574L17.6948 13.4197L17.1306 14.9176C17.1306 14.9176 17.2009 15.0799 17.2496 15.1641C17.3078 15.2646 17.418 15.4236 17.4887 15.5213C17.5647 15.6265 17.6299 15.7058 17.7283 15.8043C17.8269 15.9028 17.9773 16.0171 18.1128 16.0573C18.2482 16.0976 18.4243 16.0964 18.5411 16.0461C18.649 15.9996 18.7423 15.9238 18.8141 15.8534C18.9002 15.769 18.997 15.658 19.0787 15.555C19.1694 15.4408 19.2642 15.294 19.3252 15.1727C19.3754 15.0728 19.4513 14.8408 19.4513 14.8408L18.4752 13.3189L20.0705 10.3067L21.9597 13.193L21.1621 14.8093C21.1621 14.8093 21.298 15.0955 21.3825 15.2291C21.47 15.3673 21.5714 15.5247 21.6869 15.6384C21.7996 15.7495 21.9405 15.8624 22.0752 15.9113C22.2068 15.9592 22.3592 15.9667 22.495 15.9323C22.6332 15.8973 22.7854 15.8034 22.9044 15.7014C23.039 15.5859 23.1947 15.4117 23.3032 15.2396C23.4133 15.0647 23.5044 14.8355 23.5656 14.6518C23.6209 14.4859 23.6568 14.312 23.6705 14.1376C23.6845 13.9592 23.6723 13.758 23.6495 13.5813C23.6275 13.4105 23.5951 13.2386 23.5341 13.0776C23.4711 12.9114 23.3731 12.7405 23.2717 12.5843C23.165 12.4198 22.8938 12.091 22.8938 12.091L24.2898 10.1598L22.9883 8.36505L24.9918 5.98254L26.9954 8.36505L25.6939 10.1598L27.0898 12.091C27.0898 12.091 26.8187 12.4198 26.712 12.5843C26.6106 12.7405 26.5126 12.9114 26.4496 13.0776C26.3886 13.2386 26.3561 13.4105 26.3342 13.5813C26.3114 13.758 26.2992 13.9592 26.3131 14.1376C26.3268 14.312 26.3628 14.4859 26.4181 14.6518C26.4793 14.8355 26.5703 15.0647 26.6805 15.2396C26.7889 15.4117 26.9447 15.5859 27.0793 15.7014C27.1983 15.8034 27.3505 15.8973 27.4887 15.9323C27.6245 15.9667 27.7768 15.9592 27.9085 15.9113C28.0431 15.8624 28.1841 15.7495 28.2968 15.6384C28.4122 15.5247 28.5137 15.3673 28.6012 15.2291C28.6857 15.0955 28.8216 14.8093 28.8216 14.8093L28.0239 13.193L29.9131 10.3067L31.5084 13.3189L30.5324 14.8408C30.5324 14.8408 30.6083 15.0728 30.6585 15.1727C30.7195 15.294 30.8142 15.4408 30.905 15.555C30.9866 15.658 31.0835 15.769 31.1696 15.8534C31.2414 15.9238 31.3346 15.9996 31.4425 16.0461C31.5593 16.0964 31.7355 16.0976 31.8709 16.0573C32.0064 16.0171 32.1568 15.9028 32.2553 15.8043C32.3538 15.7058 32.4189 15.6265 32.495 15.5213C32.5657 15.4236 32.6759 15.2646 32.7341 15.1641C32.7828 15.0799 32.8531 14.9176 32.8531 14.9176L32.2889 13.4197L34.1743 10.9574L35.4337 14.0641C35.4337 14.0641 35.2629 14.4097 35.1924 14.5889C35.1119 14.7935 35.0174 15.0612 34.951 15.2921C34.8864 15.5164 34.8355 15.7447 34.7936 15.9743C34.7498 16.2139 34.7131 16.5061 34.6886 16.73C34.6672 16.9252 34.6554 17.1796 34.6466 17.3177C34.644 17.3585 34.6413 17.42 34.6393 17.4707C34.1884 17.446 33.54 17.4117 33.1353 17.396C32.362 17.3659 31.3825 17.3336 30.5057 17.3186C29.5036 17.3015 28.0391 17.2972 27.1141 17.2929C26.4093 17.2897 25.0138 17.2928 24.9583 17.2929C24.9028 17.2928 23.5073 17.2897 22.8025 17.2929C21.8775 17.2972 20.413 17.3015 19.4109 17.3186C18.5341 17.3336 17.5547 17.3659 16.7813 17.396C16.3962 17.411 15.7905 17.4427 15.3442 17.4671Z" fill="white"/>
<path fill-rule="evenodd" clip-rule="evenodd" d="M24.9918 0C38.7852 0 49.9837 11.1985 49.9837 24.9918C49.9837 38.7852 38.7852 49.9837 24.9918 49.9837C11.1985 49.9837 0 38.7852 0 24.9918C0 11.1985 11.1985 0 24.9918 0ZM24.9918 3.62206C36.7862 3.62206 46.3616 13.1975 46.3616 24.9918C46.3616 36.7862 36.7862 46.3616 24.9918 46.3616C13.1975 46.3616 3.62206 36.7862 3.62206 24.9918C3.62206 13.1975 13.1975 3.62206 24.9918 3.62206Z" fill="white"/>
</g>
<defs>
<clipPath id="clip0_65_20">
<rect width="50" height="50" fill="white"/>
</clipPath>
</defs>
</svg>
